<?xml version="1.0" standalone="no"?>
<!DOCTYPE svg PUBLIC "-//W3C//DTD SVG 20010904//EN" "http://www.w3.org/TR/2001/REC-SVG-20010904/DTD/svg10.dtd">
<svg xmlns="http://www.w3.org/2000/svg" version="1.0" width="1024.000000pt" height="1024.000000pt" viewBox="0 0 1024.000000 1024.000000" preserveAspectRatio="xMidYMid meet">
<metadata>
Created by potrace 1.16, written by Peter Selinger 2001-2019
<meta name="Producer" content="Online-Convert"/></metadata>
<g transform="translate(0.000000,1024.000000) scale(0.100000,-0.100000)" fill="#000000" stroke="none">
<path d="M2500 6901 c-19 -11 -291 -108 -437 -156 -62 -20 -118 -33 -124 -29 -7 4 -9 3 -6 -3 7 -11 10 -10 -268 -94 -451 -136 -431 -130 -572 -170 -110 -31 -113 -32 -118 -63 -7 -46 -11 -385 -4 -380 3 2 9 -47 13 -109 17 -287 73 -610 143 -830 14 -42 14 -50 2 -58 -11 -7 -11 -9 3 -9 11 0 22 -17 33 -52 9 -29 25 -72 36 -95 10 -24 19 -45 19 -48 0 -10 113 -240 136 -276 14 -22 22 -45 18 -51 -4 -6 -3 -8 3 -5 6 4 15 -5 21 -18 15 -32 153 -226 209 -291 24 -28 43 -59 43 -68 0 -10 4 -14 10 -11 5 3 21 -6 34 -22 19 -22 22 -31 13 -43 -10 -13 -10 -13 6 -1 16 12 22 9 18 -12 -1 -5 3 -6 8 -3 12 8 33 -18 23 -29 -4 -5 -2 -5 4 -2 13 7 37 -16 29 -26 -3 -4 -2 -5 2 -2 9 7 62 -45 59 -59 -2 -6 -1 -8 2 -3 6 11 68 -44 64 -57 -2 -6 -1 -8 3 -4 6 5 141 -93 223 -162 12 -10 26 -20 30 -22 4 -2 6 -7 4 -11 -1 -5 2 -6 7 -3 13 9 112 -55 104 -67 -3 -6 -1 -7 5 -3 15 9 124 -53 115 -66 -3 -7 -1 -8 5 -4 7 4 35 -4 62 -18 28 -14 49 -22 46 -18 -3 5 14 18 37 30 23 12 49 26 57 32 8 5 57 34 109 65 376 224 718 565 926 923 27 46 52 79 58 75 5 -3 7 -1 3 5 -3 5 21 66 53 134 62 128 146 366 177 500 9 42 20 75 23 73 3 -1 6 11 6 28 1 18 13 102 27 187 30 174 47 383 53 635 5 217 -1 282 -27 290 -10 4 -15 11 -12 17 4 7 2 8 -5 4 -10 -7 -202 41 -381 94 -36 10 -84 24 -108 30 -23 6 -40 15 -37 20 3 6 -1 7 -10 4 -8 -4 -28 -2 -43 4 -15 6 -93 32 -174 58 -80 27 -144 53 -141 58 3 5 1 6 -6 2 -12 -8 -444 141 -449 156 -2 4 -7 6 -12 3 -4 -3 -29 4 -55 15 -51 22 -72 24 -95 11z m150 -280 c68 -27 118 -51 110 -53 -8 -3 -5 -4 6 -2 27 5 114 -24 114 -38 0 -5 4 -7 9 -4 13 8 224 -65 239 -83 8 -9 11 -10 7 -3 -8 15 -19 18 118 -26 65 -21 114 -42 110 -47 -4 -4 -3 -5 4 -2 6 4 61 -7 122 -25 79 -23 111 -37 111 -48 0 -12 2 -12 9 -2 5 9 17 11 34 7 15 -4 25 -11 22 -15 -3 -4 2 -11 11 -14 8 -3 12 -2 9 4 -3 6 -3 10 0 10 16 0 121 -33 132 -42 7 -6 10 -31 7 -71 -2 -34 -6 -127 -8 -207 -10 -302 -78 -687 -166 -935 -69 -194 -227 -504 -250 -490 -6 3 -7 0 -5 -7 6 -16 -89 -153 -167 -242 -100 -113 -158 -171 -152 -151 5 20 5 20 -7 0 -12 -19 -12 -19 -20 0 -6 16 -8 17 -8 3 -1 -9 4 -20 10 -24 7 -4 1 -15 -16 -30 -15 -13 -32 -21 -38 -17 -5 3 -7 1 -4 -4 12 -19 -225 -209 -245 -197 -6 4 -8 3 -5 -3 9 -15 -19 -36 -35 -27 -7 4 -10 4 -6 -1 6 -7 -63 -65 -77 -65 -3 0 -24 -12 -47 -26 -23 -14 -48 -27 -57 -29 -30 -5 -177 85 -164 100 5 4 2 5 -4 1 -12 -6 -51 8 -63 24 -3 3 -21 16 -40 28 -19 12 -47 32 -61 44 -15 13 -61 52 -102 87 -42 36 -73 69 -70 74 3 6 2 7 -4 4 -13 -8 -66 47 -56 58 5 4 3 5 -4 2 -24 -14 -312 331 -296 356 3 5 2 7 -4 4 -25 -15 -229 376 -218 416 4 15 3 18 -3 9 -16 -23 -103 247 -146 453 -50 243 -76 495 -76 735 l0 138 38 10 c102 27 478 137 561 163 51 17 100 28 108 25 8 -3 12 -2 9 2 -2 4 95 41 217 81 122 41 238 81 257 89 19 9 55 23 80 33 25 9 45 17 45 18 0 0 56 -21 125 -48z"/>
<path d="M2225 6273 c-104 -6 -208 -14 -230 -18 -22 -3 -56 -8 -75 -10 -79 -8 -198 -38 -237 -61 -66 -38 -77 -68 -69 -188 15 -231 77 -814 123 -1166 15 -113 27 -230 27 -260 -1 -30 2 -46 6 -36 5 14 9 9 18 -22 17 -56 85 -155 126 -183 19 -13 32 -27 30 -31 -3 -5 -2 -7 3 -6 14 5 93 -25 88 -33 -3 -4 0 -11 6 -15 8 -4 9 -3 5 4 -9 16 4 15 73 -2 187 -48 487 -44 695 9 112 28 164 53 214 103 37 37 90 120 96 151 1 9 8 34 14 56 11 41 60 343 69 428 4 31 2 47 -6 47 -6 0 -11 -6 -11 -13 0 -19 -105 -119 -115 -110 -4 5 -5 3 -2 -3 7 -12 -65 -87 -76 -79 -4 3 -5 2 -2 -2 7 -9 -296 -313 -306 -307 -4 2 -11 -1 -15 -7 -5 -8 -2 -10 7 -5 8 4 -2 -7 -21 -24 -47 -42 -99 -55 -160 -40 -50 12 -115 64 -103 83 3 5 2 7 -4 4 -13 -8 -246 227 -236 238 4 4 3 5 -3 2 -14 -8 -96 77 -123 128 -40 77 -22 165 47 233 75 72 146 91 207 53 52 -32 204 -191 198 -206 -3 -8 0 -15 6 -15 6 0 11 6 11 13 0 6 5 4 11 -5 5 -10 20 -18 31 -18 12 0 18 3 15 7 -10 9 44 64 55 57 5 -3 7 -1 6 5 -2 5 102 115 230 243 127 129 232 236 232 239 0 3 -83 5 -183 4 -166 -2 -199 1 -343 28 -135 25 -185 30 -329 31 -179 0 -263 -13 -347 -55 -36 -18 -37 -18 -43 1 -4 11 -5 49 -4 83 1 35 0 68 -3 73 -3 5 -9 58 -13 117 l-7 108 28 -7 c16 -3 45 -10 64 -15 143 -35 721 -52 952 -28 92 10 112 9 119 -2 7 -11 9 -11 9 2 0 12 14 18 51 23 29 4 69 13 90 20 22 8 39 10 39 5 0 -5 -7 -9 -15 -9 -8 0 -15 -8 -15 -17 0 -15 2 -16 10 -3 8 13 10 13 10 -2 0 -9 -8 -19 -17 -21 -17 -4 -17 -5 0 -6 19 -1 18 -18 -3 -201 -12 -105 -2 -105 103 -6 l79 73 24 164 c22 153 28 272 12 263 -4 -3 -10 1 -15 8 -12 20 -64 53 -103 67 -64 22 -273 50 -450 61 -266 15 -349 16 -555 3z m740 -168 c177 -23 171 -22 191 -33 35 -20 -248 -74 -408 -77 -53 -2 -101 -6 -107 -9 -6 -4 -11 -2 -11 3 0 6 -16 11 -35 11 -19 0 -35 -4 -35 -10 0 -12 -207 -14 -214 -1 -3 5 -26 6 -50 4 -85 -10 -336 23 -449 59 -38 12 -38 12 -14 24 27 15 146 32 303 44 171 13 678 4 829 -15z"/>
<path d="M2968 5262 l-436 -438 -61 61 c-34 34 -58 65 -54 70 4 4 3 5 -3 2 -12 -7 -47 25 -39 36 3 4 2 5 -1 2 -4 -2 -36 22 -71 55 -35 33 -69 60 -76 61 -7 0 -24 2 -40 4 -15 2 -25 0 -23 -4 3 -4 -8 -21 -24 -36 -52 -50 -50 -124 5 -175 14 -13 22 -26 20 -30 -3 -4 2 -13 10 -20 8 -7 15 -9 15 -4 0 4 22 -14 50 -41 27 -26 47 -52 44 -57 -3 -5 0 -7 8 -6 7 2 12 -3 10 -10 -1 -8 2 -11 6 -8 12 7 44 -28 35 -39 -5 -4 -3 -5 3 -2 14 8 67 -46 57 -58 -5 -4 -3 -5 3 -2 12 7 67 -45 59 -56 -3 -4 -2 -5 1 -2 4 2 19 -2 35 -10 61 -32 70 -27 259 160 97 96 180 172 185 168 4 -5 5 -3 2 3 -9 15 309 327 324 318 7 -4 9 -3 6 3 -3 5 46 61 110 124 63 63 128 132 144 153 50 67 35 152 -34 195 -73 45 -52 61 -529 -417z"/>
<path d="M8480 5831 c0 -5 -22 -11 -50 -13 -100 -10 -172 -98 -172 -210 0 -27 -4 -51 -9 -54 -5 -3 -9 -11 -9 -17 0 -7 4 -6 10 3 7 12 9 10 8 -7 -2 -18 -7 -20 -33 -16 -16 2 -42 0 -56 -6 -26 -9 -27 -12 -25 -82 l1 -73 45 -2 c24 -1 46 -7 48 -13 2 -6 8 -8 14 -5 7 4 9 -67 8 -212 -2 -121 -2 -231 -1 -245 1 -26 2 -27 89 -32 79 -4 89 -3 107 16 13 14 14 16 3 8 -17 -13 -18 0 -18 237 l0 251 80 -4 79 -3 6 31 c4 18 5 55 3 82 l-3 50 -82 0 c-77 0 -82 1 -78 20 2 11 7 37 10 58 6 39 40 71 66 63 8 -2 27 -7 42 -10 18 -4 25 -11 21 -19 -5 -8 -3 -8 7 1 15 14 39 146 29 161 -8 14 -57 31 -93 32 l-32 2 35 7 35 7 -42 2 c-24 0 -43 -3 -43 -8z"/>
<path d="M6199 5803 c-1 -5 -3 -201 -5 -438 -3 -390 1 -562 13 -527 3 8 32 12 94 12 l89 0 0 133 c0 72 4 138 8 144 9 14 178 -232 176 -254 -1 -7 2 -11 6 -8 4 2 15 -4 25 -15 10 -11 23 -20 29 -20 6 0 4 5 -4 11 -11 7 16 9 92 7 103 -3 107 -3 111 18 3 15 0 21 -9 17 -8 -3 -48 49 -105 134 -51 76 -105 155 -121 176 -29 36 -29 37 -9 45 11 4 21 12 23 17 2 6 8 9 13 7 6 -2 7 -1 3 3 -8 8 181 221 193 218 4 -1 5 6 2 15 -4 15 -18 18 -114 17 -106 0 -112 -1 -131 -25 -10 -14 -40 -49 -65 -78 -26 -29 -53 -61 -60 -72 -8 -11 -19 -17 -25 -14 -6 4 -8 2 -4 -4 3 -6 -4 -22 -16 -37 l-23 -26 5 275 5 276 -97 0 c-54 0 -99 -3 -99 -7z"/>
<path d="M7109 5770 c-56 -10 -131 -42 -175 -75 -17 -13 -35 -21 -38 -17 -4 3 -4 -1 -1 -10 4 -9 1 -19 -4 -23 -24 -14 -41 -80 -41 -159 0 -72 3 -86 28 -122 31 -47 68 -84 82 -84 5 0 7 -8 4 -17 -4 -13 -3 -14 3 -5 11 14 60 -6 103 -42 16 -14 20 -15 11 -4 -12 16 -9 16 41 -1 100 -34 144 -63 131 -85 -3 -5 -1 -6 4 -3 34 21 13 -76 -21 -98 -46 -30 -167 -25 -248 11 -21 9 -36 20 -33 24 2 4 -1 7 -8 7 -7 0 -19 4 -27 7 -11 5 -26 -11 -54 -59 -20 -35 -42 -63 -48 -62 -6 1 -12 -6 -13 -15 -3 -15 0 -16 16 -8 18 10 23 6 20 -13 -1 -5 2 -6 7 -3 5 3 24 -6 43 -20 51 -38 149 -64 238 -64 204 0 341 112 341 278 0 79 -14 121 -56 170 -42 49 -86 74 -204 114 -46 15 -101 39 -122 53 -33 22 -38 30 -38 63 0 28 7 45 25 62 49 46 183 34 270 -26 37 -25 39 -25 53 -7 20 27 62 113 62 126 0 7 -18 23 -39 37 -22 13 -38 26 -36 29 2 4 -7 7 -18 7 -12 1 -40 8 -62 17 -52 19 -138 27 -196 17z"/>
<path d="M4343 5762 l-43 -3 -1 -317 c0 -174 -1 -369 -2 -432 -1 -63 0 -125 3 -138 l5 -23 202 -2 c110 -1 199 1 196 6 -2 4 3 7 12 7 32 0 142 59 191 103 58 52 106 137 124 218 7 32 11 99 9 160 -4 99 -6 108 -48 191 -24 49 -56 99 -71 112 -16 13 -28 25 -27 27 1 2 0 3 -2 2 -2 -1 -20 9 -40 22 -75 47 -127 58 -301 64 -91 3 -184 5 -207 3z m335 -198 c25 -9 39 -20 36 -26 -5 -7 -2 -8 5 -3 16 9 57 -29 81 -76 29 -55 41 -145 30 -213 -11 -66 -42 -132 -60 -128 -6 1 -9 -1 -6 -6 3 -5 -5 -18 -17 -29 -42 -39 -91 -57 -172 -62 l-80 -6 0 270 c0 168 4 273 10 277 6 5 5 8 -2 8 -7 0 -13 4 -13 9 0 13 141 3 188 -15z"/>
<path d="M7775 5530 c-63 -7 -130 -38 -178 -80 -42 -37 -43 -39 -19 -66 9 -10 24 -32 32 -48 18 -35 35 -42 55 -23 29 30 126 59 169 51 46 -7 86 -43 86 -77 0 -21 -5 -23 -67 -27 -38 -2 -84 -4 -105 -4 -20 -1 -34 -4 -32 -7 2 -4 -17 -14 -41 -24 -54 -20 -111 -83 -126 -139 -14 -50 -5 -119 20 -161 14 -24 16 -35 8 -39 -7 -3 -3 -4 8 -3 13 1 19 -3 17 -13 -2 -8 -1 -12 3 -8 4 3 25 -2 48 -13 83 -37 200 -18 255 42 19 20 20 20 16 -10 -3 -28 -1 -31 26 -31 17 0 30 -5 30 -12 0 -10 3 -9 9 1 6 9 25 12 66 10 l57 -4 -2 125 c-2 69 -3 179 -4 246 -2 126 -11 165 -52 220 -52 71 -162 108 -279 94z m145 -433 c0 -33 -7 -51 -29 -77 -26 -32 -34 -35 -79 -35 -55 0 -81 19 -82 61 0 49 72 93 153 94 l37 0 0 -43z"/>
<path d="M8885 5530 c-105 -11 -205 -85 -253 -187 -24 -52 -27 -70 -28 -178 -1 -65 3 -124 8 -130 4 -5 24 -35 44 -65 37 -58 108 -114 165 -130 44 -13 174 -13 219 0 20 5 58 24 85 42 28 18 53 31 57 30 23 -6 -28 105 -54 116 -5 2 -8 11 -8 19 0 14 -3 13 -22 -1 -49 -36 -104 -56 -156 -56 -70 0 -109 21 -132 73 -18 39 -18 42 -2 48 9 3 101 5 205 3 l188 -4 10 28 c7 19 7 50 -1 107 -14 94 -35 147 -78 194 -17 19 -29 37 -27 41 2 3 0 12 -6 20 -7 13 -9 12 -9 -3 0 -14 -3 -15 -19 -5 -11 7 -18 15 -15 19 2 4 -4 5 -13 3 -10 -3 -38 1 -63 8 -26 8 -66 11 -95 8z m86 -166 c20 -10 29 -21 25 -30 -3 -8 -2 -13 3 -10 8 5 31 -44 31 -65 0 -5 -52 -9 -115 -9 -109 0 -115 1 -115 20 0 82 95 134 171 94z"/>
<path d="M5363 5503 c-29 -14 -52 -29 -51 -32 0 -3 0 -15 -1 -26 -1 -16 -3 -17 -10 -5 -6 8 -7 18 -4 23 3 4 2 19 -1 33 -6 24 -9 25 -89 22 l-82 -3 -3 -332 -2 -332 87 -3 c49 -2 91 -2 96 0 4 2 7 92 7 200 0 198 5 247 21 236 5 -3 9 1 9 9 0 25 26 38 92 45 l63 7 3 86 c3 83 3 87 -20 93 -41 10 -63 7 -115 -21z"/>
<path d="M5821 5516 c-24 -8 -55 -25 -69 -38 -14 -13 -22 -17 -18 -10 4 6 2 12 -4 12 -6 0 -10 8 -8 18 3 15 -7 17 -82 17 l-85 0 -3 -329 c-1 -182 1 -332 5 -336 5 -3 47 -4 96 -2 73 3 87 6 88 20 0 14 2 13 9 -3 7 -16 9 -17 9 -3 1 9 -3 20 -9 23 -11 7 -14 332 -4 384 9 44 47 81 84 81 16 0 30 -4 30 -10 0 -5 6 -7 14 -4 9 3 22 -6 33 -22 16 -25 18 -52 18 -249 l0 -220 95 1 95 1 0 254 0 254 -28 57 c-16 32 -39 66 -52 76 -14 11 -22 22 -19 25 4 3 -2 6 -12 6 -11 1 -46 3 -79 6 -38 3 -76 -1 -104 -9z"/>
</g>
</svg>
